
<svg xmlns="http://www.w3.org/2000/svg" viewBox="0 0 800 420" preserveAspectRatio="xMidYMid slice">
  <defs>
    <linearGradient id="o" x1="0" x2="1"><stop offset="0" stop-color="#ff8a2a"/><stop offset="1" stop-color="#ff6f00"/></linearGradient>
    <linearGradient id="b" x1="0" x2="1"><stop offset="0" stop-color="#8fb3ff"/><stop offset="1" stop-color="#1e3a8a"/></linearGradient>
  </defs>
  <rect width="800" height="420" fill="none"/>
  <circle cx="120" cy="120" r="90" fill="url(#o)" opacity=".35"/>
  <circle cx="690" cy="90" r="120" fill="url(#b)" opacity=".28"/>
  <g transform="translate(250,80)">
    <rect x="0" y="0" width="320" height="220" rx="18" fill="#0f1726" stroke="rgba(255,255,255,.15)"/>
    <rect x="20" y="20" width="280" height="32" rx="8" fill="rgba(255,255,255,.08)"/>
    <rect x="20" y="64" width="180" height="12" rx="6" fill="rgba(255,255,255,.12)"/>
    <rect x="20" y="84" width="150" height="12" rx="6" fill="rgba(255,255,255,.12)"/>
    <rect x="20" y="114" width="280" height="44" rx="10" fill="rgba(255,255,255,.08)"/>
    <rect x="20" y="170" width="120" height="18" rx="9" fill="url(#o)"/>
    <rect x="150" y="170" width="150" height="18" rx="9" fill="url(#b)"/>
  </g>
  <g transform="translate(130,270)">
    <rect x="0" y="0" width="540" height="110" rx="20" fill="rgba(255,255,255,.06)" stroke="rgba(255,255,255,.12)"/>
    <rect x="18" y="18" width="240" height="18" rx="9" fill="rgba(255,255,255,.2)"/>
    <rect x="18" y="44" width="420" height="10" rx="5" fill="rgba(255,255,255,.12)"/>
    <rect x="18" y="62" width="360" height="10" rx="5" fill="rgba(255,255,255,.12)"/>
  </g>
</svg>
